<svg width="10" height="15" viewBox="0 0 10 15" xmlns="http://www.w3.org/2000/svg">
<path d="M2.80502 14.46C2.7027 14.4168 2.61767 14.3408 2.56335 14.2439C2.50902 14.147 2.4885 14.0348 2.50502 13.925L3.41502 8H1.00002C0.923457 8.00206 0.847445 7.9865 0.777847 7.95453C0.708249 7.92255 0.646927 7.87502 0.598612 7.81559C0.550296 7.75616 0.516279 7.68643 0.499185 7.61177C0.482091 7.53711 0.482376 7.45953 0.50002 7.385L2.00002 0.884996C2.02641 0.773131 2.09054 0.673775 2.18161 0.603652C2.27268 0.53353 2.38512 0.496924 2.50002 0.499996H7.50002C7.57472 0.499742 7.64852 0.516227 7.71601 0.548242C7.7835 0.580256 7.84296 0.626985 7.89002 0.684996C7.93774 0.743661 7.97154 0.812389 7.98886 0.886004C8.00618 0.959619 8.00658 1.0362 7.99002 1.11L7.12502 5H9.50002C9.59373 4.99981 9.68561 5.02596 9.76517 5.07547C9.84474 5.12497 9.90879 5.19585 9.95002 5.28C9.98585 5.36077 9.99964 5.44959 9.98998 5.53742C9.98032 5.62525 9.94755 5.70895 9.89502 5.78L3.39502 14.28C3.35109 14.3451 3.29243 14.399 3.22381 14.4372C3.15518 14.4754 3.07851 14.4969 3.00002 14.5C2.93312 14.4987 2.86701 14.4852 2.80502 14.46ZM5.87502 6L6.87502 1.5H2.90002L1.63002 7H4.58502L3.79002 12.14L8.50002 6H5.87502Z"/>
</svg>
