<svg width="14" height="10" viewBox="0 0 14 10" xmlns="http://www.w3.org/2000/svg">
<path d="M9 0.5V1.5H12.2929L8 5.79295L5.8535 3.6465C5.80709 3.60005 5.75199 3.5632 5.69133 3.53806C5.63067 3.51292 5.56566 3.49998 5.5 3.49998C5.43434 3.49998 5.36933 3.51292 5.30867 3.53806C5.24801 3.5632 5.19291 3.60005 5.1465 3.6465L0 8.79295L0.70705 9.5L5.5 4.70705L7.6465 6.8535C7.69291 6.89995 7.74801 6.9368 7.80867 6.96194C7.86932 6.98708 7.93434 7.00002 8 7.00002C8.06566 7.00002 8.13068 6.98708 8.19133 6.96194C8.25199 6.9368 8.30709 6.89995 8.3535 6.8535L13 2.20705V5.5H14V0.5H9Z"/>
</svg>
